<?xml version="1.0" encoding="UTF-8"?>
<svg id="Layer_1" data-name="Layer 1" xmlns="http://www.w3.org/2000/svg" viewBox="0 0 5482.06 1940.24">
  <defs>
    <style>
      .cls-1, .cls-2, .cls-3 {
        fill-rule: evenodd;
      }

      .cls-1, .cls-2, .cls-3, .cls-4, .cls-5 {
        stroke-width: 0px;
      }

      .cls-1, .cls-4 {
        fill: #c15aec;
      }

      .cls-2 {
        fill: #301048;
      }

      .cls-3 {
        fill: #ce00f1;
      }

      .cls-5 {
        fill: #fff;
      }
    </style>
  </defs>
  <g>
    <path class="cls-3" d="M1670.13,266.76C1442.8,99.1,1161.81,0,857.66,0S272.53,99.09,45.2,266.76C15.71,378.59,0,496.02,0,617.11c0,442.61,210.35,835.57,535.55,1086.65,73.58,56.81,381.54,236.47,381.54,236.47,0,0,185.39-184.74,262.69-236.47,341.42-228.54,535.55-644.04,535.55-1086.65,0-121.09-15.71-238.52-45.2-350.35Z"/>
    <path class="cls-2" d="M1637.02,295.43c-218.06-160.83-487.61-255.89-779.35-255.89S296.38,134.59,78.31,295.42c-28.29,107.27-43.36,219.91-43.36,336.07,0,424.57,201.78,801.52,513.72,1042.37,70.58,54.5,366,226.84,366,226.84,0,0,177.84-177.21,251.98-226.84,327.51-219.22,513.73-617.8,513.73-1042.37,0-116.16-15.07-228.8-43.36-336.07Z"/>
    <path class="cls-3" d="M1403.68,646.25c-281.29-365.82-825.04-201.3-989.12,217.59,24.04,34.16,42.51,73.27,52.8,110.17,34.8,124.72-4.81,245.66-73.65,348.61,124.03,171.93,291.72,309.04,485.55,395.87,389.02-402,60.28-438.22,60.28-438.22-99.19-106.49-122.53-258.2-122.53-258.2,30.64-105.03,122.53-140.04,122.53-140.04,0,0,119.62,32.09,215.89-110.86,95.11-141.22,244.58-125.4,248.19-125l.06.08ZM1418.13,665.82c-1.33-1.88-2.67-3.75-4.02-5.6,1.34,1.85,2.68,3.72,4.02,5.6ZM654.62,752.06c18.94,14.73,35.44,32.75,49.52,53.66,24.49,36.37,54.27,68.74,89.38,93.33-18.54,20.22-45.16,32.89-74.75,32.89-55.99,0-101.38-45.39-101.38-101.38,0-31.65,14.5-59.91,37.23-78.51ZM196.71,348.64c-20.31,88.64-30.44,179.33-30.44,270.35,0,215.99,57.62,422.31,160.76,601.36,113.41-209.76-36.44-330.33-36.44-330.33,19.69-96.27,96.28-194.74,96.28-194.74-85.34-78.77-67.83-181.61-67.83-181.61,76.58,37.2,155.35,56.89,155.35,56.89,288.12-377.09,959.06-260.81,1112.08,166,3.79-38.8,5.76-78.01,5.76-117.56,0-91.02-10.12-181.71-30.43-270.35-200.99-138.51-437.63-211.88-682.55-211.88s-481.55,73.38-682.54,211.88Z"/>
    <path class="cls-3" d="M1256.26,752.06c-18.93,14.73-35.44,32.75-49.52,53.66-24.49,36.37-54.27,68.74-89.38,93.33,18.53,20.22,45.16,32.89,74.75,32.89,55.99,0,101.38-45.39,101.38-101.38,0-31.65-14.5-59.91-37.23-78.51"/>
    <path class="cls-3" d="M1018.9,1022.36s-5.69,107.94-79.36,200.57c-73.67-92.63-79.36-200.57-79.36-200.57,8.03-39.99,67.28-100.65,79.44-100.66,12.16,0,77.09,62.21,79.27,100.66"/>
    <path class="cls-1" d="M512.77,870.16c229.99-574.97,775.01-365.53,886.26-229.89-282.59-358.03-821.29-193.02-984.47,223.56,24.04,34.16,42.51,73.27,52.8,110.17,34.8,124.72-4.81,245.66-73.65,348.61,124.03,171.93,291.72,309.04,485.55,395.87,33.16-34.26,61.1-65.87,84.48-95.03-236.11-30.3-477.22-312.76-477.22-312.76,140.04-192.55,26.26-440.53,26.26-440.53"/>
    <path class="cls-1" d="M1235.59,770.39c35.01,32.76,37.08,87.62,4.64,122.92-32.44,35.3-87.28,37.87-122.87,5.74,18.53,20.22,45.16,32.9,74.75,32.9,55.99,0,101.38-45.39,101.38-101.38,0-31.65-14.5-59.91-37.23-78.5-7.24,5.63-14.13,11.75-20.67,18.33"/>
    <path class="cls-1" d="M1018.9,1022.36c-1.82-32.09-47.35-80.74-69.44-95.94,0,0,54.51,74.12,17.25,158.44-19.34,43.76-44.5,67.72-64.23,80.64,9.89,19.08,22.07,38.57,37.06,57.43,73.67-92.62,79.36-200.57,79.36-200.57"/>
  </g>
  <path class="cls-4" d="M2178.26,428.54c-12.47-7.33-23.84-13.29-34.1-17.88-10.27-4.58-21.45-8.71-33.55-12.38-12.1-3.66-24.02-5.5-35.75-5.5-9.17,0-16.69,1.46-22.55,4.37-5.87,2.9-8.8,7.81-8.8,14.71,0,6.54,2.93,11.81,8.8,15.8,5.86,4,14.21,7.64,25.03,10.91,10.81,3.27,23.74,7.26,38.78,11.99,24.2,7.27,45.1,15.62,62.7,25.07,17.6,9.45,31.16,21.54,40.7,36.25,9.53,14.71,14.3,34.25,14.3,58.58s-4.22,42.79-12.65,58.59c-8.44,15.8-19.8,28.43-34.1,37.87-14.3,9.45-30.25,16.27-47.85,20.44-17.6,4.17-35.57,6.26-53.9,6.26s-38.22-1.92-58.57-5.77c-20.35-3.85-40.06-9.16-59.12-15.95-19.07-6.78-36.49-14.76-52.25-23.92l46.2-94.05c14.66,8.8,28.05,15.95,40.15,21.45s25.58,10.45,40.42,14.85c14.85,4.4,29.79,6.6,44.83,6.6,11.73,0,19.89-1.49,24.47-4.46,4.58-2.97,6.88-6.91,6.88-11.81,0-7.65-4.04-13.56-12.1-17.75-8.07-4.19-18.61-8.19-31.62-12.01-13.02-3.82-27.41-8.28-43.17-13.38-22.74-7.65-41.44-16.29-56.1-25.94-14.67-9.64-25.49-21.11-32.45-34.41-6.97-13.29-10.45-29.4-10.45-48.34,0-28.76,6.78-52.79,20.35-72.09,13.56-19.3,31.44-33.95,53.62-43.97,22.18-10.01,46.11-15.02,71.78-15.02,19.06,0,37.49,2.29,55.27,6.88,17.78,4.59,34.46,10.17,50.05,16.77,15.58,6.6,29.24,12.84,40.97,18.7l-46.2,88.55Z"/>
  <path class="cls-5" d="M2468.65,674.39c-9.54,4.04-19.71,7.79-30.52,11.27-10.82,3.49-21.82,6.14-33,7.98-11.19,1.83-22.09,2.75-32.73,2.75-15.77,0-30.25-2.6-43.45-7.81-13.2-5.21-23.75-13.83-31.62-25.86-7.89-12.03-11.83-28.29-11.83-48.77v-129.86h-35.75v-78.65h35.75v-90.75h104.5v90.75h56.65v78.65h-56.65v92.24c0,9.2,2.01,15.64,6.05,19.35,4.03,3.71,9.53,5.56,16.5,5.56,5.13,0,11-.91,17.6-2.75,6.6-1.83,13.2-4.03,19.8-6.6l18.7,82.5Z"/>
  <path class="cls-5" d="M2694.7,490.69c-20.17,0-38.5,2.2-55,6.6s-28.79,11.74-36.85,22v171.6h-104.5v-285.45h95.7v51.15c10.26-19.43,23.1-34.38,38.5-44.83,15.4-10.45,31.71-15.67,48.95-15.67h8.53c1.65,0,3.21.19,4.67.55v94.05Z"/>
  <path class="cls-5" d="M2869.59,696.39c-25.3,0-47.85-3.88-67.65-11.64-19.8-7.77-36.39-18.33-49.78-31.69-13.39-13.35-23.56-28.7-30.52-46.05-6.97-17.33-10.45-35.57-10.45-54.72,0-27.36,6.05-52.48,18.15-75.35,12.1-22.87,29.88-41.23,53.35-55.1,23.46-13.86,52.43-20.8,86.9-20.8s63.43,6.87,86.9,20.59c23.46,13.72,41.25,31.78,53.35,54.17,12.1,22.4,18.15,46.77,18.15,73.12,0,5.42-.28,10.93-.83,16.53-.55,5.6-1.19,10.56-1.92,14.89h-202.95c.73,9.75,3.58,17.67,8.53,23.76,4.95,6.09,11.18,10.53,18.7,13.31,7.51,2.78,15.3,4.18,23.38,4.18,11.36,0,22.09-2.56,32.17-7.7,10.08-5.13,16.77-12.28,20.08-21.45l88.55,25.3c-7.7,15.4-18.42,28.97-32.17,40.7-13.75,11.74-29.98,20.99-48.68,27.78-18.7,6.78-39.79,10.17-63.25,10.17ZM2820.09,517.64h95.7c-1.1-8.95-3.76-16.53-7.97-22.72-4.22-6.2-9.72-11.02-16.5-14.46-6.79-3.44-14.58-5.17-23.38-5.17s-16.59,1.73-23.38,5.17c-6.79,3.45-12.29,8.27-16.5,14.46-4.22,6.2-6.88,13.77-7.98,22.72Z"/>
  <path class="cls-5" d="M3046.14,605.04c0-19.1,5.31-35.95,15.95-50.54,10.63-14.59,25.39-26.04,44.27-34.32,18.88-8.28,40.42-12.44,64.62-12.44,11.36,0,22.09.92,32.17,2.75,10.08,1.84,18.79,4.59,26.12,8.25v-8.8c0-13.04-3.94-22.71-11.82-29.03-7.89-6.31-20.62-9.47-38.23-9.47-16.14,0-31.26,2.66-45.38,7.98-14.12,5.32-28.88,13.11-44.27,23.38l-30.25-64.9c19.43-12.46,39.88-21.73,61.32-27.77,21.45-6.05,44.46-9.08,69.03-9.08,45.83,0,81.31,10.11,106.42,30.34,25.11,20.22,37.67,50.2,37.67,89.92v54.76c0,9.66,1.46,16.37,4.4,20.13,2.93,3.76,8.06,6,15.4,6.71v88c-8.44,1.83-16.41,3.21-23.93,4.12-7.52.91-14.21,1.38-20.07,1.38-18.7,0-32.91-3.39-42.62-10.17-9.72-6.78-16.04-16.78-18.98-29.98l-2.2-10.45c-12.84,16.5-27.69,29.06-44.55,37.68-16.87,8.61-34.84,12.92-53.9,12.92s-36.3-3.97-51.7-11.89c-15.4-7.92-27.5-18.83-36.3-32.7-8.8-13.87-13.2-29.46-13.2-46.76ZM3215.54,611.2c4.03-2.77,7.33-5.8,9.9-9.1,2.56-3.29,3.85-6.67,3.85-10.14v-20.28c-5.87-2.08-12.56-3.81-20.07-5.2-7.52-1.38-14.21-2.08-20.08-2.08-12.47,0-23.01,2.95-31.62,8.84-8.62,5.9-12.92,13.35-12.92,22.36,0,4.86,1.46,9.27,4.4,13.26,2.93,3.99,6.96,7.11,12.1,9.36,5.13,2.25,11,3.38,17.6,3.38,6.23,0,12.74-.95,19.53-2.86,6.78-1.91,12.55-4.42,17.32-7.54Z"/>
  <path class="cls-5" d="M3857.94,690.89h-104.5v-158.84c0-13.95-2.84-24.05-8.52-30.32-5.69-6.26-12.56-9.39-20.62-9.39s-16.87,3.76-26.4,11.27c-9.54,7.51-16.5,17.17-20.9,28.97v158.31h-104.5v-158.84c0-13.95-2.84-24.05-8.52-30.32-5.69-6.26-12.56-9.39-20.62-9.39s-16.87,3.64-26.4,10.93c-9.54,7.29-16.5,16.65-20.9,28.09v159.53h-104.5v-285.45h94.05v43.18c10.26-15.5,24.38-27.3,42.35-35.41,17.96-8.11,39.23-12.17,63.8-12.17s41.8,5.05,53.9,15.14c12.1,10.1,20.16,21.45,24.2,34.07,10.26-15.5,24.38-27.58,42.35-36.23,17.96-8.65,38.13-12.98,60.5-12.98,19.06,0,34.28,3.43,45.65,10.28,11.36,6.85,19.89,15.68,25.58,26.49,5.68,10.82,9.44,22.09,11.27,33.8,1.83,11.72,2.75,22.45,2.75,32.18v187.1Z"/>
  <path class="cls-4" d="M2110.61,1143.64c-25.3,0-49.41-4.49-72.33-13.48-22.92-8.98-43.17-22.18-60.78-39.6-17.6-17.41-31.44-38.5-41.52-63.25-10.09-24.75-15.12-53.07-15.12-84.97,0-27.5,5.13-52.98,15.4-76.45,10.26-23.46,24.48-44.09,42.62-61.88,18.15-17.78,39.33-31.62,63.53-41.52s50.41-14.85,78.65-14.85c35.2,0,67.1,7.61,95.7,22.83,28.6,15.22,49.86,36.02,63.8,62.42l-79.75,61.05c-7.7-15.4-19.25-27.77-34.65-37.12-15.4-9.35-31.72-14.02-48.95-14.02-12.84,0-24.57,2.57-35.2,7.7-10.64,5.14-19.89,12.29-27.77,21.45-7.89,9.17-13.94,20.08-18.15,32.73-4.22,12.65-6.33,26.49-6.33,41.52s2.2,29.34,6.6,41.8c4.4,12.47,10.54,23.19,18.42,32.17,7.88,8.99,17.33,15.95,28.33,20.9,11,4.95,23.28,7.43,36.85,7.43,17.23,0,33.73-4.31,49.5-12.93,15.76-8.61,30.06-20.81,42.9-36.57v104.5c-29.34,26.77-63.25,40.15-101.75,40.15ZM2206.86,1009.99h-72.05v-77h160.6v207.9h-88.55v-130.9Z"/>
  <path class="cls-5" d="M2325.11,1055.04c0-19.1,5.31-35.95,15.95-50.54,10.63-14.59,25.39-26.04,44.27-34.32,18.88-8.28,40.42-12.44,64.62-12.44,11.36,0,22.09.92,32.17,2.75,10.08,1.84,18.79,4.59,26.12,8.25v-8.8c0-13.04-3.94-22.71-11.82-29.03-7.89-6.31-20.62-9.47-38.23-9.47-16.14,0-31.26,2.66-45.38,7.98-14.12,5.32-28.88,13.11-44.27,23.38l-30.25-64.9c19.43-12.46,39.88-21.73,61.32-27.77,21.45-6.05,44.46-9.08,69.03-9.08,45.83,0,81.31,10.11,106.42,30.34,25.11,20.22,37.67,50.2,37.67,89.92v54.76c0,9.66,1.46,16.37,4.4,20.13,2.93,3.76,8.06,6,15.4,6.71v88c-8.44,1.83-16.41,3.21-23.93,4.12-7.52.91-14.21,1.38-20.07,1.38-18.7,0-32.91-3.39-42.62-10.17-9.72-6.78-16.04-16.78-18.98-29.98l-2.2-10.45c-12.84,16.5-27.69,29.06-44.55,37.68-16.87,8.61-34.84,12.92-53.9,12.92s-36.3-3.97-51.7-11.89c-15.4-7.92-27.5-18.83-36.3-32.7-8.8-13.87-13.2-29.46-13.2-46.76ZM2494.51,1061.2c4.03-2.77,7.33-5.8,9.9-9.1,2.56-3.29,3.85-6.67,3.85-10.14v-20.28c-5.87-2.08-12.56-3.81-20.07-5.2-7.52-1.38-14.21-2.08-20.08-2.08-12.47,0-23.01,2.95-31.62,8.84-8.62,5.9-12.92,13.35-12.92,22.36,0,4.86,1.46,9.27,4.4,13.26,2.93,3.99,6.96,7.11,12.1,9.36,5.13,2.25,11,3.38,17.6,3.38,6.23,0,12.74-.95,19.53-2.86,6.78-1.91,12.55-4.42,17.32-7.54Z"/>
  <path class="cls-5" d="M3136.91,1140.89h-104.5v-158.84c0-13.95-2.84-24.05-8.52-30.32-5.69-6.26-12.56-9.39-20.62-9.39s-16.87,3.76-26.4,11.27c-9.54,7.51-16.5,17.17-20.9,28.97v158.31h-104.5v-158.84c0-13.95-2.84-24.05-8.52-30.32-5.69-6.26-12.56-9.39-20.62-9.39s-16.87,3.64-26.4,10.93c-9.54,7.29-16.5,16.65-20.9,28.09v159.53h-104.5v-285.45h94.05v43.18c10.26-15.5,24.38-27.3,42.35-35.41,17.96-8.11,39.23-12.17,63.8-12.17s41.8,5.05,53.9,15.14c12.1,10.1,20.16,21.45,24.2,34.07,10.26-15.5,24.38-27.58,42.35-36.23,17.96-8.65,38.13-12.98,60.5-12.98,19.06,0,34.28,3.43,45.65,10.28,11.36,6.85,19.89,15.68,25.58,26.49,5.68,10.82,9.44,22.09,11.27,33.8,1.83,11.72,2.75,22.45,2.75,32.18v187.1Z"/>
  <path class="cls-5" d="M3329.95,1146.39c-25.3,0-47.85-3.88-67.65-11.64-19.8-7.77-36.39-18.33-49.78-31.69-13.39-13.35-23.56-28.7-30.52-46.04-6.97-17.33-10.45-35.57-10.45-54.72,0-27.36,6.05-52.48,18.15-75.35,12.1-22.87,29.88-41.23,53.35-55.1,23.46-13.86,52.43-20.8,86.9-20.8s63.43,6.87,86.9,20.59c23.46,13.72,41.25,31.78,53.35,54.17,12.1,22.4,18.15,46.77,18.15,73.12,0,5.42-.28,10.93-.83,16.53-.55,5.6-1.19,10.56-1.92,14.89h-202.95c.73,9.75,3.58,17.67,8.53,23.76,4.95,6.09,11.18,10.53,18.7,13.31,7.51,2.78,15.3,4.18,23.38,4.18,11.36,0,22.09-2.56,32.17-7.7,10.08-5.13,16.77-12.28,20.08-21.45l88.55,25.3c-7.7,15.4-18.42,28.97-32.17,40.7-13.75,11.74-29.98,20.99-48.68,27.78-18.7,6.78-39.79,10.17-63.25,10.17ZM3280.45,967.64h95.7c-1.1-8.95-3.76-16.53-7.97-22.72-4.22-6.2-9.72-11.02-16.5-14.46-6.79-3.44-14.58-5.17-23.38-5.17s-16.59,1.73-23.38,5.17c-6.79,3.45-12.29,8.27-16.5,14.46-4.22,6.2-6.88,13.77-7.98,22.72Z"/>
  <path class="cls-5" d="M3638.5,1146.39c-25.3,0-50.14-4.12-74.53-12.38-24.39-8.25-45.01-20.26-61.88-36.03l35.75-64.35c17.96,11.74,35.29,20.9,51.98,27.5,16.68,6.6,31.8,9.9,45.38,9.9,7.7,0,13.38-.89,17.05-2.66,3.66-1.77,5.5-4.74,5.5-8.93,0-3.23-1.29-5.93-3.85-8.1-2.57-2.16-6.69-4.31-12.38-6.48-5.69-2.16-12.92-4.49-21.72-7.02-22.74-7.92-41.71-15.3-56.92-22.14-15.22-6.84-26.59-15.2-34.1-25.1-7.52-9.9-11.27-23.13-11.27-39.69,0-19.44,4.95-36.63,14.85-51.56,9.9-14.94,24.11-26.73,42.62-35.37,18.51-8.64,40.79-12.96,66.83-12.96,19.43,0,38.96,3.02,58.58,9.08,19.61,6.05,38.59,16.96,56.92,32.73l-39.6,63.8c-18.34-11.36-33.83-19.43-46.48-24.2-12.65-4.76-23.92-7.15-33.83-7.15-4.77,0-8.89.54-12.38,1.62-3.49,1.07-6.14,2.68-7.97,4.83-1.84,2.15-2.75,5.01-2.75,8.59s1.28,6.53,3.85,8.85c2.56,2.33,6.6,4.48,12.1,6.45,5.5,1.97,12.46,4.2,20.9,6.7,24.93,7.16,45.28,14.4,61.05,21.73,15.76,7.34,27.41,16.19,34.92,26.56,7.51,10.38,11.27,23.98,11.27,40.79,0,29.7-10.72,52.95-32.17,69.76-21.45,16.82-50.69,25.22-87.72,25.22Z"/>
  <path class="cls-4" d="M2245.91,1293.89h-112.2v297h-107.25v-297h-112.75v-93.5h332.2v93.5Z"/>
  <path class="cls-5" d="M2374.06,1596.39c-25.67,0-48.4-3.97-68.2-11.9-19.8-7.93-36.39-18.84-49.78-32.72-13.39-13.88-23.47-29.66-30.25-47.33-6.79-17.67-10.17-36.25-10.17-55.72s3.39-38.13,10.17-55.99c6.78-17.85,16.86-33.63,30.25-47.33,13.38-13.7,29.97-24.52,49.78-32.46,19.8-7.93,42.53-11.9,68.2-11.9s48.86,3.97,68.48,11.9c19.61,7.94,36.11,18.76,49.5,32.46,13.38,13.7,23.46,29.48,30.25,47.33,6.78,17.86,10.17,36.51,10.17,55.99s-3.39,38.05-10.17,55.72c-6.79,17.67-16.87,33.45-30.25,47.33-13.39,13.89-29.89,24.79-49.5,32.72-19.62,7.93-42.44,11.9-68.48,11.9ZM2322.91,1448.72c0,12.32,2.2,22.98,6.6,31.95,4.4,8.98,10.45,15.85,18.15,20.6,7.7,4.75,16.5,7.12,26.4,7.12s18.7-2.37,26.4-7.12c7.7-4.75,13.75-11.62,18.15-20.6,4.4-8.97,6.6-19.63,6.6-31.95s-2.2-22.97-6.6-31.95c-4.4-8.97-10.45-15.84-18.15-20.59-7.7-4.75-16.5-7.13-26.4-7.13s-18.7,2.38-26.4,7.13c-7.7,4.75-13.75,11.62-18.15,20.59-4.4,8.98-6.6,19.63-6.6,31.95Z"/>
  <path class="cls-5" d="M2566.56,1493.26v-187.82h104.5v163.55c0,12.24,2.84,21.86,8.52,28.88,5.68,7.02,13.48,10.53,23.38,10.53,5.5,0,11-.69,16.5-2.08,5.5-1.39,11.09-4.17,16.78-8.34,5.68-4.18,11.27-10.09,16.77-17.74v-174.79h104.5v170.47c0,9.71,1.46,16.46,4.4,20.23,2.93,3.78,8.06,6.02,15.4,6.75v88c-9.17,1.83-17.42,3.21-24.75,4.12-7.34.91-13.75,1.38-19.25,1.38-17.6,0-31.54-3.27-41.8-9.8-10.27-6.53-16.87-16.47-19.8-29.85l-2.2-10.3c-13.57,17.74-29.79,30.49-48.67,38.27-18.89,7.78-40.24,11.67-64.08,11.67-28.97,0-51.24-8.86-66.82-26.6-15.59-17.73-23.38-43.24-23.38-76.54Z"/>
  <path class="cls-5" d="M3116.55,1390.69c-20.17,0-38.5,2.2-55,6.6-16.5,4.4-28.79,11.74-36.85,22v171.6h-104.5v-285.45h95.7v51.15c10.26-19.43,23.1-34.38,38.5-44.83,15.4-10.45,31.71-15.67,48.95-15.67h8.53c1.65,0,3.21.19,4.67.55v94.05Z"/>
  <path class="cls-5" d="M3439.94,1590.89h-104.5v-158.84c0-13.95-3.21-24.05-9.62-30.32-6.42-6.26-13.84-9.39-22.27-9.39-5.87,0-12.1,1.65-18.7,4.94-6.6,3.3-12.65,7.9-18.15,13.79s-9.9,12.66-13.2,20.29v159.53h-104.5v-285.45h94.05v43.18c6.96-10.45,15.76-19.2,26.4-26.23,10.63-7.03,22.91-12.34,36.85-15.95,13.93-3.6,29.15-5.41,45.65-5.41,19.8,0,35.56,3.43,47.3,10.28,11.73,6.85,20.53,15.68,26.4,26.5,5.86,10.82,9.71,22.09,11.55,33.8,1.83,11.72,2.75,22.45,2.75,32.17v187.1Z"/>
  <path class="cls-5" d="M3474.58,1505.04c0-19.1,5.31-35.95,15.95-50.54,10.63-14.59,25.39-26.04,44.27-34.32,18.88-8.28,40.42-12.44,64.62-12.44,11.36,0,22.09.92,32.17,2.75,10.08,1.84,18.79,4.59,26.12,8.25v-8.8c0-13.04-3.94-22.71-11.82-29.03-7.89-6.31-20.62-9.47-38.23-9.47-16.14,0-31.26,2.66-45.38,7.98-14.12,5.32-28.88,13.11-44.27,23.38l-30.25-64.9c19.43-12.46,39.88-21.73,61.32-27.78,21.45-6.05,44.46-9.08,69.03-9.08,45.83,0,81.31,10.12,106.42,30.34,25.11,20.22,37.67,50.2,37.67,89.92v54.76c0,9.66,1.46,16.37,4.4,20.13,2.93,3.76,8.06,6,15.4,6.71v88c-8.44,1.83-16.41,3.21-23.93,4.12-7.52.91-14.21,1.38-20.07,1.38-18.7,0-32.91-3.39-42.62-10.17-9.72-6.78-16.04-16.78-18.98-29.98l-2.2-10.45c-12.84,16.5-27.69,29.06-44.55,37.67-16.87,8.61-34.84,12.92-53.9,12.92s-36.3-3.97-51.7-11.89c-15.4-7.92-27.5-18.83-36.3-32.7-8.8-13.87-13.2-29.46-13.2-46.76ZM3643.98,1511.2c4.03-2.77,7.33-5.8,9.9-9.1,2.56-3.29,3.85-6.67,3.85-10.14v-20.28c-5.87-2.08-12.56-3.81-20.07-5.2-7.52-1.38-14.21-2.08-20.08-2.08-12.47,0-23.01,2.95-31.62,8.84-8.62,5.9-12.92,13.35-12.92,22.36,0,4.86,1.46,9.27,4.4,13.26,2.93,3.99,6.96,7.11,12.1,9.36,5.13,2.25,11,3.38,17.6,3.38,6.23,0,12.74-.95,19.53-2.86,6.78-1.91,12.55-4.42,17.32-7.54Z"/>
  <path class="cls-5" d="M4286.38,1590.89h-104.5v-158.84c0-13.95-2.84-24.05-8.52-30.32-5.69-6.26-12.56-9.39-20.62-9.39s-16.87,3.76-26.4,11.27c-9.54,7.51-16.5,17.17-20.9,28.97v158.31h-104.5v-158.84c0-13.95-2.84-24.05-8.52-30.32-5.69-6.26-12.56-9.39-20.62-9.39s-16.87,3.64-26.4,10.93c-9.54,7.29-16.5,16.65-20.9,28.09v159.53h-104.5v-285.45h94.05v43.18c10.26-15.5,24.38-27.3,42.35-35.42,17.96-8.11,39.23-12.17,63.8-12.17s41.8,5.05,53.9,15.14c12.1,10.1,20.16,21.45,24.2,34.07,10.26-15.5,24.38-27.58,42.35-36.23,17.96-8.64,38.13-12.98,60.5-12.98,19.06,0,34.28,3.43,45.65,10.28,11.36,6.85,19.89,15.68,25.58,26.5,5.68,10.82,9.44,22.09,11.27,33.8,1.83,11.72,2.75,22.45,2.75,32.17v187.1Z"/>
  <path class="cls-5" d="M4479.42,1596.39c-25.3,0-47.85-3.88-67.65-11.64-19.8-7.77-36.39-18.33-49.78-31.69-13.39-13.36-23.56-28.7-30.52-46.05-6.97-17.33-10.45-35.57-10.45-54.72,0-27.36,6.05-52.48,18.15-75.35,12.1-22.87,29.88-41.23,53.35-55.1,23.46-13.86,52.43-20.8,86.9-20.8s63.43,6.87,86.9,20.59c23.46,13.72,41.25,31.78,53.35,54.17,12.1,22.4,18.15,46.77,18.15,73.12,0,5.42-.28,10.93-.83,16.53-.55,5.6-1.19,10.56-1.92,14.89h-202.95c.73,9.75,3.58,17.67,8.53,23.76s11.18,10.53,18.7,13.31c7.51,2.78,15.3,4.18,23.38,4.18,11.36,0,22.09-2.56,32.17-7.7,10.08-5.13,16.77-12.28,20.08-21.45l88.55,25.3c-7.7,15.4-18.42,28.97-32.17,40.7-13.75,11.74-29.98,21-48.68,27.78-18.7,6.78-39.79,10.17-63.25,10.17ZM4429.92,1417.64h95.7c-1.1-8.96-3.76-16.53-7.97-22.72-4.22-6.2-9.72-11.02-16.5-14.46-6.79-3.44-14.58-5.16-23.38-5.16s-16.59,1.73-23.38,5.16c-6.79,3.45-12.29,8.27-16.5,14.46-4.22,6.2-6.88,13.77-7.98,22.72Z"/>
  <path class="cls-5" d="M4962.87,1590.89h-104.5v-158.84c0-13.95-3.21-24.05-9.62-30.32-6.42-6.26-13.84-9.39-22.27-9.39-5.87,0-12.1,1.65-18.7,4.94-6.6,3.3-12.65,7.9-18.15,13.79s-9.9,12.66-13.2,20.29v159.53h-104.5v-285.45h94.05v43.18c6.96-10.45,15.76-19.2,26.4-26.23,10.63-7.03,22.91-12.34,36.85-15.95,13.93-3.6,29.15-5.41,45.65-5.41,19.8,0,35.56,3.43,47.3,10.28,11.73,6.85,20.53,15.68,26.4,26.5,5.86,10.82,9.71,22.09,11.55,33.8,1.83,11.72,2.75,22.45,2.75,32.17v187.1Z"/>
  <path class="cls-5" d="M5216.41,1574.39c-9.54,4.04-19.71,7.79-30.52,11.28-10.82,3.49-21.82,6.14-33,7.97-11.19,1.83-22.09,2.75-32.73,2.75-15.77,0-30.25-2.6-43.45-7.81-13.2-5.21-23.75-13.83-31.62-25.86-7.89-12.03-11.83-28.29-11.83-48.77v-129.86h-35.75v-78.65h35.75v-90.75h104.5v90.75h56.65v78.65h-56.65v92.24c0,9.2,2.01,15.64,6.05,19.35,4.03,3.71,9.53,5.56,16.5,5.56,5.13,0,11-.91,17.6-2.75,6.6-1.83,13.2-4.03,19.8-6.6l18.7,82.5Z"/>
  <path class="cls-5" d="M5362.16,1596.39c-25.3,0-50.14-4.12-74.53-12.38-24.39-8.25-45.01-20.26-61.88-36.03l35.75-64.35c17.96,11.74,35.29,20.9,51.98,27.5,16.68,6.6,31.8,9.9,45.38,9.9,7.7,0,13.38-.89,17.05-2.66,3.66-1.77,5.5-4.74,5.5-8.93,0-3.23-1.29-5.93-3.85-8.09-2.57-2.16-6.69-4.31-12.38-6.48-5.69-2.16-12.92-4.49-21.72-7.02-22.74-7.92-41.71-15.3-56.92-22.14-15.22-6.84-26.59-15.2-34.1-25.1-7.52-9.9-11.27-23.13-11.27-39.69,0-19.44,4.95-36.63,14.85-51.56,9.9-14.94,24.11-26.73,42.62-35.37,18.51-8.64,40.79-12.96,66.83-12.96,19.43,0,38.96,3.03,58.58,9.08,19.61,6.05,38.59,16.96,56.92,32.73l-39.6,63.8c-18.34-11.36-33.83-19.43-46.48-24.2-12.65-4.76-23.92-7.15-33.83-7.15-4.77,0-8.89.54-12.38,1.62-3.49,1.07-6.14,2.68-7.97,4.83-1.84,2.15-2.75,5.01-2.75,8.58s1.28,6.53,3.85,8.85c2.56,2.33,6.6,4.48,12.1,6.45s12.46,4.2,20.9,6.7c24.93,7.16,45.28,14.4,61.05,21.73,15.76,7.34,27.41,16.19,34.92,26.56,7.51,10.38,11.27,23.98,11.27,40.79,0,29.7-10.72,52.95-32.17,69.76-21.45,16.82-50.69,25.22-87.72,25.22Z"/>
</svg>